<svg width="159" height="184" viewBox="0 0 159 184" fill="none" xmlns="http://www.w3.org/2000/svg">
<path d="M149.028 114.788C147.944 115.301 139.223 118.272 83.1288 118.272C20.9438 118.272 11.7129 115.223 10.6223 114.726C10.5325 114.659 10.4362 114.595 10.3398 114.543C9.94341 114.327 0.686279 109.208 0.686279 97.0321C0.686279 84.5966 8.56809 82.1425 10.6617 81.7116C11.4348 81.9313 12.2079 82.0876 12.8364 82.1087C14.4176 82.2882 29.2242 83.8194 79.719 83.8194C130.26 83.8194 145.248 82.2861 146.823 82.1087C147.388 82.0897 148.108 81.9503 148.864 81.756C151.253 82.3051 158.666 84.9789 158.666 97.0321C158.666 108.285 151.069 113.504 149.46 114.509C149.306 114.591 149.157 114.684 149.028 114.788ZM7.26942 62.3657C4.29978 72.8729 8.5002 76.2838 11.38 77.3334C11.437 77.3482 11.4917 77.4031 11.5465 77.4221C12.2977 77.6861 12.8627 77.7685 13.0006 77.7685C13.0926 77.7685 13.1956 77.7854 13.2853 77.796C13.4233 77.8129 27.6452 79.4898 79.7212 79.4898C131.972 79.4898 146.247 77.8171 146.387 77.8002C146.479 77.7896 146.573 77.7854 146.667 77.7854C146.755 77.7854 147.057 77.7516 147.491 77.6545C147.778 77.494 148.089 77.3884 148.443 77.363C151.299 76.2627 155.318 72.2245 152.399 61.8821C148.914 49.5353 140.765 47.248 139.852 47.248H20.5123C20.3678 47.248 10.9004 49.5543 7.26942 62.3657ZM9.5514 118.857C8.0841 120.108 4.8867 124.277 8.37099 135.291C11.783 146.145 17.4923 148.094 17.5471 148.113C17.6851 148.157 17.8581 148.227 17.9851 148.297C18.0617 148.335 29.3775 153.79 79.8329 153.79C130.367 153.79 142.075 148.318 142.191 148.265C142.314 148.202 142.469 148.145 142.6 148.104C142.622 148.096 148.329 146.145 151.742 135.297C155.307 124.021 151.882 119.926 150.445 118.771C142.053 121.901 110.081 122.6 83.131 122.6C53.693 122.6 18.7406 121.916 9.5514 118.857ZM18.9202 39.5286C18.3815 41.1401 18.8282 42.3672 19.1436 42.9564C19.5422 43.6977 20.0546 44.0694 20.3722 44.1687L140.272 44.1983C140.43 44.1983 140.894 44.0019 141.35 43.3957C141.643 43.0029 142.546 41.5688 141.847 39.5392C136.825 24.7235 125.38 20.5143 123.138 19.811C123.059 19.7814 120.751 19.792 120.694 19.792H40.1063C40.0165 19.792 37.66 19.8047 37.5243 19.8469C35.2905 20.5544 23.9353 24.7679 18.9202 39.5286ZM21.6227 168.069C30.6805 177.288 39.6442 183.337 80.0584 183.337C120.462 183.337 129.434 177.29 138.512 168.069C145.115 161.336 143.518 155.448 142.259 152.863C137.158 154.502 121.226 158.117 79.8351 158.117C38.7156 158.117 22.9673 154.542 17.8712 152.882C16.6339 155.501 15.0855 161.419 21.6227 168.069ZM120.451 8.90042C116.047 5.08404 102.58 1.73863 96.7134 1.21908C91.3304 0.743876 70.2713 0.902276 63.8371 1.20218C57.6219 1.51053 44.5542 5.13895 40.1983 8.91309C36.841 11.8213 37.3359 13.456 37.9623 15.568H122.676C123.302 13.456 123.819 11.815 120.451 8.90042ZM148.128 77.4834C148.229 77.4475 148.336 77.4031 148.441 77.3651C148.089 77.3884 147.775 77.4961 147.489 77.6566C147.677 77.6101 147.885 77.5573 148.128 77.4834Z" fill="black"/>
</svg>
